HIERARCHY
ROOT mixamorig:Hips
{
	OFFSET -0.000008 104.274872 1.554316
	CHANNELS 6 Xposition Yposition Zposition Xrotation Yrotation Zrotation
	JOINT mixamorig:Spine
	{
		OFFSET -0.000005 10.181595 0.131519
		CHANNELS 6 Xposition Yposition Zposition Xrotation Yrotation Zrotation
		JOINT mixamorig:Spine1
		{
			OFFSET -0.000000 9.893959 -1.470707
			CHANNELS 6 Xposition Yposition Zposition Xrotation Yrotation Zrotation
			JOINT mixamorig:Spine2
			{
				OFFSET -0.000000 9.220757 -1.370641
				CHANNELS 6 Xposition Yposition Zposition Xrotation Yrotation Zrotation
				JOINT mixamorig:Neck
				{
					OFFSET 0.000001 16.740417 -2.049036
					CHANNELS 6 Xposition Yposition Zposition Xrotation Yrotation Zrotation
					JOINT mixamorig:Head
					{
						OFFSET 0.000000 9.617874 1.685006
						CHANNELS 6 Xposition Yposition Zposition Xrotation Yrotation Zrotation
						JOINT mixamorig:HeadTop_End
						{
							OFFSET 0.000002 22.037354 7.501101
							CHANNELS 6 Xposition Yposition Zposition Xrotation Yrotation Zrotation
							End Site
							{
								OFFSET 0.000168 2310.654297 -282.823242
							}
						}
					}
				}
				JOINT mixamorig:RightShoulder
				{
					OFFSET -4.569970 11.014908 -2.160885
					CHANNELS 6 Xposition Yposition Zposition Xrotation Yrotation Zrotation
					JOINT mixamorig:RightArm
					{
						OFFSET -10.592851 -0.524811 -2.232101
						CHANNELS 6 Xposition Yposition Zposition Xrotation Yrotation Zrotation
						JOINT mixamorig:RightForeArm
						{
							OFFSET -27.841511 0.000031 -0.000004
							CHANNELS 6 Xposition Yposition Zposition Xrotation Yrotation Zrotation
							JOINT mixamorig:RightHand
							{
								OFFSET -28.328831 -0.000015 0.000015
								CHANNELS 6 Xposition Yposition Zposition Xrotation Yrotation Zrotation
								JOINT mixamorig:RightHandThumb1
								{
									OFFSET -2.464806 -1.573990 2.681852
									CHANNELS 6 Xposition Yposition Zposition Xrotation Yrotation Zrotation
									JOINT mixamorig:RightHandThumb2
									{
										OFFSET -3.215179 -1.872803 1.924282
										CHANNELS 6 Xposition Yposition Zposition Xrotation Yrotation Zrotation
										JOINT mixamorig:RightHandThumb3
										{
											OFFSET -2.654831 -1.527969 1.512609
											CHANNELS 6 Xposition Yposition Zposition Xrotation Yrotation Zrotation
											JOINT mixamorig:RightHandThumb4
											{
												OFFSET -2.018814 -1.152008 1.108052
												CHANNELS 6 Xposition Yposition Zposition Xrotation Yrotation Zrotation
												End Site
												{
													OFFSET -188.809540 -114.533607 132.431396
												}
											}
										}
									}
								}
								JOINT mixamorig:RightHandIndex1
								{
									OFFSET -9.108284 -0.517868 2.259835
									CHANNELS 6 Xposition Yposition Zposition Xrotation Yrotation Zrotation
									JOINT mixamorig:RightHandIndex2
									{
										OFFSET -3.699989 0.000000 0.001215
										CHANNELS 6 Xposition Yposition Zposition Xrotation Yrotation Zrotation
										JOINT mixamorig:RightHandIndex3
										{
											OFFSET -2.850006 0.000031 -0.000522
											CHANNELS 6 Xposition Yposition Zposition Xrotation Yrotation Zrotation
											JOINT mixamorig:RightHandIndex4
											{
												OFFSET -2.772186 -0.000015 -0.000020
												CHANNELS 6 Xposition Yposition Zposition Xrotation Yrotation Zrotation
												End Site
												{
													OFFSET -277.218445 0.000000 -0.050231
												}
											}
										}
									}
								}
								JOINT mixamorig:RightHandMiddle1
								{
									OFFSET -9.532516 -0.000031 -0.000023
									CHANNELS 6 Xposition Yposition Zposition Xrotation Yrotation Zrotation
									JOINT mixamorig:RightHandMiddle2
									{
										OFFSET -3.700005 -0.000015 0.003713
										CHANNELS 6 Xposition Yposition Zposition Xrotation Yrotation Zrotation
										JOINT mixamorig:RightHandMiddle3
										{
											OFFSET -2.949974 0.000015 -0.002054
											CHANNELS 6 Xposition Yposition Zposition Xrotation Yrotation Zrotation
											JOINT mixamorig:RightHandMiddle4
											{
												OFFSET -2.946640 0.000000 -0.000156
												CHANNELS 6 Xposition Yposition Zposition Xrotation Yrotation Zrotation
												End Site
												{
													OFFSET -294.664337 0.000000 -0.113670
												}
											}
										}
									}
								}
								JOINT mixamorig:RightHandRing1
								{
									OFFSET -9.103600 -0.043076 -1.865134
									CHANNELS 6 Xposition Yposition Zposition Xrotation Yrotation Zrotation
									JOINT mixamorig:RightHandRing2
									{
										OFFSET -3.379288 0.000000 -0.001055
										CHANNELS 6 Xposition Yposition Zposition Xrotation Yrotation Zrotation
										JOINT mixamorig:RightHandRing3
										{
											OFFSET -2.889687 -0.000015 0.000379
											CHANNELS 6 Xposition Yposition Zposition Xrotation Yrotation Zrotation
											JOINT mixamorig:RightHandRing4
											{
												OFFSET -2.638809 -0.000015 0.000941
												CHANNELS 6 Xposition Yposition Zposition Xrotation Yrotation Zrotation
												End Site
												{
													OFFSET -263.880371 0.000000 0.516020
												}
											}
										}
									}
								}
								JOINT mixamorig:RightHandPinky1
								{
									OFFSET -8.076683 -0.486710 -3.806280
									CHANNELS 6 Xposition Yposition Zposition Xrotation Yrotation Zrotation
									JOINT mixamorig:RightHandPinky2
									{
										OFFSET -3.600014 -0.000015 -0.003747
										CHANNELS 6 Xposition Yposition Zposition Xrotation Yrotation Zrotation
										JOINT mixamorig:RightHandPinky3
										{
											OFFSET -2.099983 0.000000 -0.005739
											CHANNELS 6 Xposition Yposition Zposition Xrotation Yrotation Zrotation
											JOINT mixamorig:RightHandPinky4
											{
												OFFSET -2.115768 -0.000031 -0.003680
												CHANNELS 6 Xposition Yposition Zposition Xrotation Yrotation Zrotation
												End Site
												{
													OFFSET -211.577087 0.000000 -0.350686
												}
											}
										}
									}
								}
							}
						}
					}
				}
				JOINT mixamorig:LeftShoulder
				{
					OFFSET 4.570447 11.014725 -2.160855
					CHANNELS 6 Xposition Yposition Zposition Xrotation Yrotation Zrotation
					JOINT mixamorig:LeftArm
					{
						OFFSET 10.592371 -0.524597 -2.232119
						CHANNELS 6 Xposition Yposition Zposition Xrotation Yrotation Zrotation
						JOINT mixamorig:LeftForeArm
						{
							OFFSET 27.841532 -0.000031 0.000026
							CHANNELS 6 Xposition Yposition Zposition Xrotation Yrotation Zrotation
							JOINT mixamorig:LeftHand
							{
								OFFSET 28.328846 -0.000061 0.000022
								CHANNELS 6 Xposition Yposition Zposition Xrotation Yrotation Zrotation
								JOINT mixamorig:LeftHandThumb1
								{
									OFFSET 2.466141 -1.576172 2.681732
									CHANNELS 6 Xposition Yposition Zposition Xrotation Yrotation Zrotation
									JOINT mixamorig:LeftHandThumb2
									{
										OFFSET 3.217812 -1.872070 1.916482
										CHANNELS 6 Xposition Yposition Zposition Xrotation Yrotation Zrotation
										JOINT mixamorig:LeftHandThumb3
										{
											OFFSET 2.656029 -1.528778 1.514513
											CHANNELS 6 Xposition Yposition Zposition Xrotation Yrotation Zrotation
											JOINT mixamorig:LeftHandThumb4
											{
												OFFSET 2.020889 -1.154053 1.115139
												CHANNELS 6 Xposition Yposition Zposition Xrotation Yrotation Zrotation
												End Site
												{
													OFFSET 190.885437 -115.081749 130.048782
												}
											}
										}
									}
								}
								JOINT mixamorig:LeftHandIndex1
								{
									OFFSET 9.109314 -0.518021 2.259871
									CHANNELS 6 Xposition Yposition Zposition Xrotation Yrotation Zrotation
									JOINT mixamorig:LeftHandIndex2
									{
										OFFSET 3.699989 0.000000 -0.000322
										CHANNELS 6 Xposition Yposition Zposition Xrotation Yrotation Zrotation
										JOINT mixamorig:LeftHandIndex3
										{
											OFFSET 2.850006 0.000000 0.000352
											CHANNELS 6 Xposition Yposition Zposition Xrotation Yrotation Zrotation
											JOINT mixamorig:LeftHandIndex4
											{
												OFFSET 2.774864 -0.000031 -0.000027
												CHANNELS 6 Xposition Yposition Zposition Xrotation Yrotation Zrotation
												End Site
												{
													OFFSET 277.486267 0.000000 -0.009857
												}
											}
										}
									}
								}
								JOINT mixamorig:LeftHandMiddle1
								{
									OFFSET 9.533394 0.000061 0.000044
									CHANNELS 6 Xposition Yposition Zposition Xrotation Yrotation Zrotation
									JOINT mixamorig:LeftHandMiddle2
									{
										OFFSET 3.699989 -0.000015 -0.000231
										CHANNELS 6 Xposition Yposition Zposition Xrotation Yrotation Zrotation
										JOINT mixamorig:LeftHandMiddle3
										{
											OFFSET 2.949997 -0.000015 -0.000059
											CHANNELS 6 Xposition Yposition Zposition Xrotation Yrotation Zrotation
											JOINT mixamorig:LeftHandMiddle4
											{
												OFFSET 2.952896 0.000031 0.000063
												CHANNELS 6 Xposition Yposition Zposition Xrotation Yrotation Zrotation
												End Site
												{
													OFFSET 295.289337 0.000000 0.022810
												}
											}
										}
									}
								}
								JOINT mixamorig:LeftHandRing1
								{
									OFFSET 9.104523 -0.042999 -1.865074
									CHANNELS 6 Xposition Yposition Zposition Xrotation Yrotation Zrotation
									JOINT mixamorig:LeftHandRing2
									{
										OFFSET 3.150009 -0.000031 0.000043
										CHANNELS 6 Xposition Yposition Zposition Xrotation Yrotation Zrotation
										JOINT mixamorig:LeftHandRing3
										{
											OFFSET 2.949982 -0.000015 0.000040
											CHANNELS 6 Xposition Yposition Zposition Xrotation Yrotation Zrotation
											JOINT mixamorig:LeftHandRing4
											{
												OFFSET 2.644348 0.000000 0.000057
												CHANNELS 6 Xposition Yposition Zposition Xrotation Yrotation Zrotation
												End Site
												{
													OFFSET 264.434631 0.000000 0.012105
												}
											}
										}
									}
								}
								JOINT mixamorig:LeftHandPinky1
								{
									OFFSET 8.077789 -0.486847 -3.806259
									CHANNELS 6 Xposition Yposition Zposition Xrotation Yrotation Zrotation
									JOINT mixamorig:LeftHandPinky2
									{
										OFFSET 3.599953 0.000031 0.014727
										CHANNELS 6 Xposition Yposition Zposition Xrotation Yrotation Zrotation
										JOINT mixamorig:LeftHandPinky3
										{
											OFFSET 2.100021 0.000015 0.007705
											CHANNELS 6 Xposition Yposition Zposition Xrotation Yrotation Zrotation
											JOINT mixamorig:LeftHandPinky4
											{
												OFFSET 2.125504 0.000031 0.007517
												CHANNELS 6 Xposition Yposition Zposition Xrotation Yrotation Zrotation
												End Site
												{
													OFFSET 212.550781 0.000000 0.625752
												}
											}
										}
									}
								}
							}
						}
					}
				}
			}
		}
	}
	JOINT mixamorig:RightUpLeg
	{
		OFFSET -8.207787 -6.751648 -1.599560
		CHANNELS 6 Xposition Yposition Zposition Xrotation Yrotation Zrotation
		JOINT mixamorig:RightLeg
		{
			OFFSET -0.000002 -44.370117 0.345942
			CHANNELS 6 Xposition Yposition Zposition Xrotation Yrotation Zrotation
			JOINT mixamorig:RightFoot
			{
				OFFSET 0.000003 -44.423679 -3.043532
				CHANNELS 6 Xposition Yposition Zposition Xrotation Yrotation Zrotation
				JOINT mixamorig:RightToeBase
				{
					OFFSET -0.000002 -8.728671 10.710558
					CHANNELS 6 Xposition Yposition Zposition Xrotation Yrotation Zrotation
					JOINT mixamorig:RightToe_End
					{
						OFFSET -0.000001 -0.000679 9.278119
						CHANNELS 6 Xposition Yposition Zposition Xrotation Yrotation Zrotation
						End Site
						{
							OFFSET 0.000000 -0.067690 927.812134
						}
					}
				}
			}
		}
	}
	JOINT mixamorig:LeftUpLeg
	{
		OFFSET 8.207793 -6.751686 -1.599556
		CHANNELS 6 Xposition Yposition Zposition Xrotation Yrotation Zrotation
		JOINT mixamorig:LeftLeg
		{
			OFFSET -0.000004 -44.370014 0.346954
			CHANNELS 6 Xposition Yposition Zposition Xrotation Yrotation Zrotation
			JOINT mixamorig:LeftFoot
			{
				OFFSET -0.000001 -44.423672 -3.044401
				CHANNELS 6 Xposition Yposition Zposition Xrotation Yrotation Zrotation
				JOINT mixamorig:LeftToeBase
				{
					OFFSET -0.000002 -8.728669 10.710558
					CHANNELS 6 Xposition Yposition Zposition Xrotation Yrotation Zrotation
					JOINT mixamorig:LeftToe_End
					{
						OFFSET -0.000003 -0.000679 9.278133
						CHANNELS 6 Xposition Yposition Zposition Xrotation Yrotation Zrotation
						End Site
						{
							OFFSET 0.000000 -0.068021 927.813477
						}
					}
				}
			}
		}
	}
}
MOTION
Frames: 3
Frame Time: 0.033333
0.000006 104.270477 1.554256 0.000010 0.000003 -0.000113 -0.000005 10.181587 0.131522 0.000001 -0.000003 0.000084 -0.000000 9.893967 -1.470711 0.000001 0.000000 -0.000000 -0.000000 9.220802 -1.370642 0.000000 -0.000000 -0.000000 0.000001 16.740433 -2.049030 0.000000 -0.000000 -0.000000 0.000000 9.617859 1.685014 0.000000 0.000000 0.000000 0.000002 22.037384 7.501101 0.000000 -0.000000 0.000000 -4.569968 11.014880 -2.160881 0.000008 0.000001 -0.000038 -10.592798 -0.524829 -2.231756 54.641472 65.374473 -36.679359 -27.841478 0.000020 0.000589 31.976545 105.929957 -41.588240 -28.328829 0.000006 0.000029 -0.000321 -0.000044 0.000007 -2.464815 -1.574186 2.682104 99.852380 -181.449849 159.000670 -3.214958 -1.873040 1.924641 233.466794 -33.746694 300.187688 -2.654438 -1.528094 1.513105 173.432628 -41.885350 228.888464 -2.018842 -1.152021 1.108058 0.000000 -0.000007 0.000002 -9.108031 -0.517789 2.260427 183.024071 14.140719 -204.257408 -3.699711 0.000035 0.001808 180.371485 13.380942 -182.991696 -2.849873 -0.000041 0.000043 176.905315 7.682213 -136.152335 -2.772163 -0.000000 -0.000017 -0.000000 0.000003 -0.000000 -9.532299 0.000105 0.000565 188.676913 12.318983 -250.432328 -3.699787 0.000216 0.004305 189.534034 9.334195 -271.222768 -2.949805 0.000201 -0.001479 185.983278 5.362698 -276.277081 -2.946625 0.000000 -0.000154 0.000002 0.000000 0.000000 -9.103432 -0.042885 -1.864530 192.679978 12.422263 -271.185284 -3.379155 0.000200 -0.000464 192.895771 8.297921 -294.577671 -2.889654 0.000216 0.000954 188.457336 2.464005 -327.206387 -2.638803 -0.000004 0.000937 -0.000004 0.000002 0.000004 -8.076517 -0.486536 -3.805684 192.528471 11.651282 -274.223462 -3.599873 0.000134 -0.003158 192.330573 6.425092 -306.196342 -2.099989 0.000086 -0.005171 191.682538 0.564216 -356.389080 -2.115786 -0.000040 -0.003674 0.000001 0.000002 -0.000005 4.570446 11.014691 -2.160851 -0.000018 0.000010 -0.000021 10.592468 -0.524559 -2.232354 36.689276 -59.641492 21.522524 27.841805 -0.000044 -0.000123 198.890683 -73.123575 205.286595 28.328838 -0.000045 0.000024 0.000021 -0.000088 0.000000 2.465845 -1.576038 2.681866 -56.917749 178.785707 42.791617 3.217637 -1.872064 1.916535 155.613429 42.692538 -204.236781 2.655914 -1.528831 1.514619 174.092861 40.745685 -230.985632 2.020926 -1.154072 1.115153 0.000001 -0.000000 0.000001 9.109084 -0.517753 2.260026 202.956025 -17.818806 284.666384 3.699722 0.000166 -0.000168 18.561056 -155.553037 74.066606 2.849725 0.000216 0.000480 17.154652 -160.063530 81.270829 2.774881 -0.000025 -0.000031 -0.000001 0.000001 0.000002 9.533179 0.000352 0.000208 204.464090 -15.728819 295.001389 3.699748 0.000216 -0.000078 199.930879 -21.548480 -94.566489 2.949758 0.000258 0.000094 200.948468 -16.715317 -76.946917 2.952873 -0.000015 0.000066 0.000001 0.000001 0.000000 9.104319 -0.042722 -1.864912 205.342780 -15.565672 297.407091 3.149732 0.000402 0.000204 200.472240 -14.252445 -69.394025 2.949721 0.000438 0.000177 197.177767 -10.779601 -63.985779 2.644338 0.000012 0.000066 -0.000003 0.000000 0.000001 8.077579 -0.486583 -3.806105 23.310111 -164.211476 111.746826 3.599687 0.000368 0.014854 194.591010 -10.458666 -71.688204 2.099679 0.000340 0.007826 189.191268 -8.391874 -84.974138 2.125490 -0.000018 0.007517 0.000001 -0.000004 -0.000000 -8.207786 -6.751667 -1.599560 -0.077001 -0.000003 0.000080 -0.000002 -44.370110 0.345938 0.153719 -0.000000 -0.000000 0.000000 -44.423679 -3.043532 -0.076700 0.000000 -0.000002 -0.000006 -8.728667 10.710559 -0.000009 -0.000000 -0.000000 -0.000001 -0.000679 9.278123 0.000000 -0.000000 -0.000000 8.207792 -6.751710 -1.599556 -0.074518 -0.000003 0.000081 -0.000002 -44.370014 0.346960 0.148822 0.000002 0.000000 -0.000001 -44.423664 -3.044403 -0.074314 0.000000 -0.000002 -0.000004 -8.728671 10.710558 0.000007 -0.000000 -0.000000 0.000000 -0.000680 9.278137 -0.000000 0.000000 -0.000001 
0.000006 104.270477 1.554256 0.000010 0.000003 -0.000113 -0.000005 10.181587 0.131522 0.000001 -0.000003 0.000084 -0.000000 9.893967 -1.470711 0.000001 0.000000 -0.000000 -0.000000 9.220802 -1.370642 0.000000 -0.000000 -0.000000 0.000001 16.740433 -2.049030 0.000000 -0.000000 -0.000000 0.000000 9.617859 1.685014 0.000000 0.000000 0.000000 0.000002 22.037384 7.501101 0.000000 -0.000000 0.000000 -4.569968 11.014880 -2.160881 0.000008 0.000001 -0.000038 -10.592798 -0.524836 -2.231757 54.533149 65.727983 -36.832208 -27.841484 -0.000012 0.000597 31.293724 105.368768 -40.352604 -28.328829 0.000021 0.000023 -0.000322 -0.000043 0.000007 -2.464816 -1.574168 2.682122 97.621551 -179.746919 157.943466 -3.214973 -1.873035 1.924655 230.272424 -32.843238 298.355121 -2.654463 -1.528038 1.513107 165.644464 -38.570748 219.448432 -2.018834 -1.152022 1.108067 0.000003 0.000000 -0.000001 -9.108040 -0.517769 2.260425 183.742853 13.753476 -210.530568 -3.699705 0.000066 0.001816 181.216912 14.514015 -189.383237 -2.849795 0.000024 0.000049 178.310735 9.239931 -159.309832 -2.772162 -0.000017 -0.000020 -0.000000 0.000001 0.000002 -9.532259 0.000108 0.000564 185.950739 11.417320 -235.380258 -3.699750 0.000176 0.004305 186.327123 10.342267 -242.569988 -2.949727 0.000055 -0.001477 180.876578 6.779641 -194.629369 -2.946616 0.000002 -0.000147 0.000003 0.000000 -0.000000 -9.103374 -0.042873 -1.864532 188.916926 11.781030 -254.102817 -3.379089 0.000215 -0.000463 188.996293 8.174468 -275.492374 -2.889406 0.000247 0.000950 182.123524 2.754985 -255.486504 -2.638801 -0.000027 0.000942 0.000005 -0.000001 -0.000000 -8.076489 -0.486510 -3.805694 189.575452 10.518306 -264.533664 -3.599843 0.000158 -0.003175 188.607409 5.300970 -298.000935 -2.099995 0.000095 -0.005175 184.748257 0.129574 -361.799738 -2.115767 -0.000041 -0.003682 -0.000001 0.000001 -0.000004 4.570446 11.014691 -2.160851 -0.000018 0.000010 -0.000021 10.592473 -0.524580 -2.232352 36.679175 -60.579120 21.916477 27.841799 -0.000048 -0.000121 199.422631 -74.263923 205.472157 28.328831 -0.000013 0.000018 0.000018 -0.000089 0.000000 2.465881 -1.576058 2.681891 -51.711232 174.283506 22.480972 3.217688 -1.872060 1.916550 174.106235 44.989636 -230.229612 2.655991 -1.528823 1.514612 194.429026 41.230133 -256.806042 2.020895 -1.154066 1.115152 0.000001 0.000008 0.000004 9.109064 -0.517790 2.260020 199.311040 -21.914310 262.610829 3.699727 0.000150 -0.000177 16.473602 -154.813587 65.901989 2.849731 0.000237 0.000493 18.205709 -159.823981 84.011252 2.774889 -0.000018 -0.000014 -0.000001 0.000000 -0.000001 9.533133 0.000307 0.000189 199.334508 -19.231023 270.312250 3.699738 0.000211 -0.000081 198.288438 -20.794214 -97.481710 2.949747 0.000277 0.000090 200.193924 -15.708214 -75.528457 2.952870 -0.000015 0.000084 0.000001 -0.000001 0.000001 9.104280 -0.042757 -1.864930 200.262444 -18.429575 275.527864 3.149697 0.000383 0.000196 197.196058 -13.342997 -75.452376 2.949718 0.000416 0.000177 195.320761 -8.966042 -60.480724 2.644325 0.000029 0.000067 -0.000003 0.000004 0.000000 8.077523 -0.486638 -3.806117 19.409150 -161.235495 91.996194 3.599716 0.000412 0.014861 194.480471 -8.592239 -62.135686 2.099799 0.000398 0.007818 190.465822 -4.992102 -52.691634 2.125502 -0.000000 0.007513 -0.000000 -0.000001 0.000001 -8.207786 -6.751667 -1.599560 -0.077001 -0.000003 0.000080 -0.000002 -44.370110 0.345938 0.153719 -0.000000 -0.000000 0.000000 -44.423679 -3.043532 -0.076700 0.000000 -0.000002 -0.000006 -8.728667 10.710559 -0.000009 -0.000000 -0.000000 -0.000001 -0.000679 9.278123 0.000000 -0.000000 -0.000000 8.207792 -6.751710 -1.599556 -0.074518 -0.000003 0.000081 -0.000002 -44.370014 0.346960 0.148822 0.000002 0.000000 -0.000001 -44.423664 -3.044403 -0.074314 0.000000 -0.000002 -0.000004 -8.728671 10.710558 0.000007 -0.000000 -0.000000 0.000000 -0.000680 9.278137 -0.000000 0.000000 -0.000001 
0.000006 104.270477 1.554256 0.000010 0.000003 -0.000113 -0.000005 10.181587 0.131522 0.000001 -0.000003 0.000084 -0.000000 9.893967 -1.470711 0.000001 0.000000 -0.000000 -0.000000 9.220802 -1.370642 0.000000 -0.000000 -0.000000 0.000001 16.740433 -2.049030 0.000000 -0.000000 -0.000000 0.000000 9.617859 1.685014 0.000000 0.000000 0.000000 0.000002 22.037384 7.501101 0.000000 -0.000000 0.000000 -4.569968 11.014880 -2.160881 0.000008 0.000001 -0.000038 -10.592804 -0.524825 -2.231757 54.511047 65.016885 -36.349731 -27.841480 -0.000003 0.000596 31.110320 105.252942 -40.046588 -28.328829 0.000006 0.000024 -0.000321 -0.000044 0.000007 -2.464797 -1.574167 2.682108 97.275165 -177.249706 157.152326 -3.214951 -1.873044 1.924650 228.738432 -35.126522 295.693588 -2.654449 -1.528044 1.513104 164.276664 -39.442570 216.794152 -2.018835 -1.152014 1.108071 -0.000000 -0.000006 0.000002 -9.108034 -0.517785 2.260434 183.277485 13.779244 -206.867019 -3.699704 0.000037 0.001812 180.338209 13.534266 -182.676783 -2.849842 -0.000030 0.000041 177.459298 8.055246 -145.023412 -2.772167 -0.000014 -0.000019 0.000001 -0.000003 0.000002 -9.532268 0.000093 0.000573 186.196476 12.206240 -234.124132 -3.699757 0.000175 0.004303 186.617488 10.229606 -245.486179 -2.949736 0.000138 -0.001476 183.414867 6.222928 -237.438986 -2.946608 0.000017 -0.000153 -0.000005 0.000001 -0.000001 -9.103401 -0.042859 -1.864532 190.715902 12.390058 -261.626462 -3.379096 0.000201 -0.000463 190.583588 9.421907 -276.671620 -2.889525 0.000309 0.000951 185.358275 3.525664 -293.127595 -2.638813 -0.000012 0.000936 -0.000001 -0.000001 -0.000002 -8.076509 -0.486515 -3.805688 191.335168 11.277169 -270.295803 -3.599874 0.000160 -0.003165 190.676096 6.789829 -296.058730 -2.099976 0.000117 -0.005171 188.332849 1.345212 -344.010537 -2.115770 -0.000055 -0.003681 0.000003 0.000000 -0.000005 4.570446 11.014691 -2.160851 -0.000018 0.000010 -0.000021 10.592469 -0.524552 -2.232354 36.678136 -59.394020 21.410613 27.841799 -0.000051 -0.000113 198.897199 -72.689544 205.489889 28.328833 -0.000029 0.000019 0.000020 -0.000089 -0.000000 2.465842 -1.576035 2.681867 -55.519217 173.476273 34.463212 3.217668 -1.872068 1.916535 168.305396 47.905345 -220.425572 2.655973 -1.528818 1.514633 195.168612 45.028941 -254.828020 2.020888 -1.154080 1.115146 0.000002 0.000003 0.000001 9.109055 -0.517783 2.260016 199.587362 -17.956875 275.064203 3.699735 0.000214 -0.000168 21.015088 -158.868096 89.677863 2.849809 0.000315 0.000528 26.769965 -162.994774 115.722392 2.774862 -0.000047 -0.000048 -0.000000 0.000002 0.000001 9.533154 0.000345 0.000198 199.482723 -15.650129 282.648691 3.699758 0.000275 -0.000077 201.534799 -17.432190 -77.748358 2.949826 0.000322 0.000108 205.992946 -12.977431 -52.470671 2.952860 -0.000014 0.000068 -0.000000 0.000001 -0.000001 9.104311 -0.042730 -1.864929 202.019401 -15.013292 291.779616 3.149722 0.000383 0.000201 200.256898 -13.101157 -65.468039 2.949787 0.000423 0.000197 200.533644 -9.457754 -49.095267 2.644327 0.000030 0.000062 -0.000002 -0.000001 -0.000000 8.077564 -0.486573 -3.806098 23.140742 -164.339775 111.782063 3.599755 0.000424 0.014865 198.159648 -8.404847 -50.497535 2.099797 0.000410 0.007837 193.914220 -5.875036 -47.171281 2.125495 -0.000027 0.007517 -0.000003 0.000005 0.000003 -8.207786 -6.751667 -1.599560 -0.077001 -0.000003 0.000080 -0.000002 -44.370110 0.345938 0.153719 -0.000000 -0.000000 0.000000 -44.423679 -3.043532 -0.076700 0.000000 -0.000002 -0.000006 -8.728667 10.710559 -0.000009 -0.000000 -0.000000 -0.000001 -0.000679 9.278123 0.000000 -0.000000 -0.000000 8.207792 -6.751710 -1.599556 -0.074518 -0.000003 0.000081 -0.000002 -44.370014 0.346960 0.148822 0.000002 0.000000 -0.000001 -44.423664 -3.044403 -0.074314 0.000000 -0.000002 -0.000004 -8.728671 10.710558 0.000007 -0.000000 -0.000000 0.000000 -0.000680 9.278137 -0.000000 0.000000 -0.000001 
